<svg width="128" height="19" viewBox="0 0 128 19" fill="none" xmlns="http://www.w3.org/2000/svg">
<path d="M2.364 1.944H3.144V12.972H2.364V1.944ZM0.792 4.212H4.44V5.016H1.488V10.5H0.792V4.212ZM4.068 4.212H4.764V9.504C4.764 9.828 4.716 10.08 4.512 10.224C4.296 10.368 4.02 10.392 3.6 10.392C3.588 10.164 3.468 9.816 3.36 9.6C3.648 9.612 3.876 9.612 3.972 9.612C4.044 9.6 4.068 9.576 4.068 9.48V4.212ZM6.192 2.448H10.932V3.192H6.192V2.448ZM6.204 4.116H10.548V4.824H6.204V4.116ZM6.204 5.772H10.548V6.48H6.204V5.772ZM4.908 7.416H11.46V8.184H4.908V7.416ZM4.656 12C5.724 11.856 7.332 11.592 8.892 11.34L8.952 12.096C7.488 12.36 5.976 12.624 4.848 12.828L4.656 12ZM8.376 7.656C8.82 9.828 9.84 11.508 11.688 12.192C11.496 12.372 11.22 12.732 11.1 12.972C9.156 12.12 8.124 10.272 7.632 7.776L8.376 7.656ZM10.824 8.46L11.436 9C10.788 9.6 9.9 10.212 9.24 10.632L8.724 10.116C9.36 9.696 10.296 8.988 10.824 8.46ZM5.82 2.448H6.672V7.8H5.82V2.448ZM5.808 7.764H6.66V12.06L5.808 12.168V7.764ZM19.74 10.728L20.388 10.26C21.372 10.788 22.644 11.58 23.304 12.144L22.608 12.672C22.008 12.132 20.748 11.292 19.74 10.728ZM14.1 7.632H21.924V8.352H14.1V7.632ZM12.636 9.18H23.376V9.924H12.636V9.18ZM12.768 2.412H23.148V3.144H12.768V2.412ZM17.544 9.324H18.456V12.012C18.456 12.48 18.372 12.708 18 12.828C17.64 12.972 17.076 12.972 16.212 12.972C16.164 12.732 16.032 12.396 15.924 12.168C16.596 12.192 17.148 12.192 17.34 12.18C17.508 12.168 17.544 12.12 17.544 11.988V9.324ZM15.252 10.224L16.08 10.512C15.36 11.4 14.22 12.24 13.224 12.78C13.068 12.624 12.732 12.312 12.528 12.18C13.548 11.712 14.616 10.992 15.252 10.224ZM14.328 4.764V6.144H21.672V4.764H14.328ZM13.488 4.068H22.56V6.852H13.488V4.068ZM16.152 2.688H16.992V6.528H16.152V2.688ZM18.9 2.688H19.74V6.528H18.9V2.688ZM25.788 11.328H34.26V12.216H25.788V11.328ZM29.472 1.992H30.396V11.832H29.472V1.992ZM25.344 7.98H26.256V12.972H25.344V7.98ZM33.78 7.98H34.704V12.936H33.78V7.98ZM25.812 3.072H26.7V6.336H33.288V3.072H34.224V7.212H25.812V3.072ZM36.984 4.548H46.296V5.46H36.984V4.548ZM45.948 4.548H46.884C46.884 4.548 46.872 4.884 46.86 5.028C46.584 9.996 46.332 11.784 45.804 12.384C45.516 12.732 45.228 12.828 44.772 12.864C44.352 12.912 43.584 12.888 42.84 12.84C42.828 12.576 42.708 12.18 42.54 11.916C43.356 11.988 44.124 12 44.424 12C44.688 12 44.832 11.964 44.988 11.82C45.444 11.376 45.708 9.504 45.948 4.74V4.548ZM40.908 1.944H41.856V4.032C41.856 6.768 41.52 10.476 37.32 13.008C37.188 12.792 36.852 12.456 36.636 12.3C40.62 9.924 40.908 6.516 40.908 4.032V1.944ZM50.568 3.132C50.916 3.168 51.264 3.192 51.66 3.192C52.356 3.192 55.848 3.192 56.52 3.192C56.856 3.192 57.288 3.168 57.636 3.132V4.128C57.276 4.104 56.856 4.08 56.52 4.08C55.848 4.08 52.356 4.08 51.672 4.08C51.276 4.08 50.88 4.104 50.568 4.128V3.132ZM49.14 6.144C49.464 6.18 49.812 6.192 50.184 6.192C50.88 6.192 57.396 6.192 58.032 6.192C58.284 6.192 58.68 6.18 58.98 6.144V7.128C58.704 7.116 58.332 7.104 58.032 7.104C57.396 7.104 50.88 7.104 50.184 7.104C49.824 7.104 49.464 7.116 49.14 7.14V6.144ZM54.792 6.624C54.792 8.136 54.6 9.384 54.06 10.392C53.628 11.196 52.716 12.048 51.708 12.576L50.82 11.928C51.744 11.532 52.608 10.848 53.076 10.08C53.676 9.132 53.772 7.956 53.784 6.636L54.792 6.624ZM69.588 3.984C69.516 4.08 69.36 4.344 69.3 4.5C68.82 5.688 67.908 7.368 66.912 8.472C65.568 9.972 63.852 11.4 61.956 12.264L61.188 11.46C63.132 10.716 64.896 9.276 66.132 7.908C66.948 6.984 67.824 5.556 68.136 4.56C67.704 4.56 63.864 4.56 63.456 4.56C63.024 4.56 62.376 4.608 62.244 4.62V3.54C62.4 3.564 63.084 3.612 63.456 3.612C63.924 3.612 67.632 3.612 68.088 3.612C68.472 3.612 68.796 3.576 68.988 3.516L69.588 3.984ZM67.068 7.848C68.364 8.928 69.96 10.608 70.776 11.604L69.948 12.336C69.084 11.196 67.68 9.66 66.384 8.52L67.068 7.848ZM76.032 10.944C76.032 10.272 76.032 4.968 76.032 3.972C76.032 3.624 76.008 3.096 75.948 2.712H77.124C77.076 3.084 77.04 3.6 77.04 3.972C77.04 5.832 77.052 10.38 77.052 10.944C77.052 11.328 77.076 11.976 77.124 12.372H75.96C76.02 11.988 76.032 11.388 76.032 10.944ZM76.824 5.868C78.408 6.324 80.832 7.248 82.164 7.896L81.744 8.916C80.376 8.184 78.132 7.332 76.824 6.924V5.868ZM84.936 4.104C85.392 4.092 85.776 4.068 86.016 4.044C86.784 3.96 89.052 3.744 91.26 3.552C92.58 3.444 93.696 3.372 94.5 3.348L94.512 4.308C93.816 4.296 92.772 4.32 92.16 4.488C90.444 5.04 89.4 6.876 89.4 8.292C89.4 10.632 91.596 11.388 93.54 11.46L93.192 12.444C90.972 12.36 88.452 11.184 88.452 8.496C88.452 6.636 89.592 5.1 90.684 4.452C89.4 4.584 86.34 4.884 85.044 5.16L84.936 4.104ZM92.772 5.772C93.048 6.168 93.504 6.912 93.768 7.452L93.144 7.728C92.868 7.152 92.532 6.54 92.172 6.036L92.772 5.772ZM94.08 5.268C94.38 5.664 94.848 6.396 95.124 6.924L94.512 7.224C94.224 6.648 93.864 6.048 93.492 5.544L94.08 5.268ZM103.524 2.496C103.5 2.64 103.464 3.108 103.464 3.252C103.428 4.032 103.452 6.348 103.464 7.308L102.552 6.84C102.552 6.312 102.54 3.924 102.504 3.264C102.48 2.94 102.444 2.604 102.42 2.496H103.524ZM97.14 4.176C98.772 4.152 101.772 4.044 103.62 4.044C105.084 4.044 106.572 4.044 107.136 4.056L107.124 4.944C106.452 4.908 105.372 4.884 103.608 4.884C101.544 4.884 98.976 4.968 97.164 5.1L97.14 4.176ZM103.44 7.656C103.44 9.264 102.696 10.068 101.604 10.068C100.596 10.068 99.624 9.36 99.624 8.052C99.624 6.864 100.608 5.976 101.748 5.976C103.14 5.976 103.848 7.008 103.848 8.388C103.848 10.02 103.056 11.82 100.272 12.648L99.468 11.868C101.652 11.352 102.924 10.284 102.924 8.304C102.924 7.224 102.396 6.768 101.748 6.768C101.112 6.768 100.524 7.26 100.524 8.04C100.524 8.796 101.088 9.228 101.748 9.228C102.492 9.228 102.972 8.604 102.78 7.32L103.44 7.656Z" fill="black"/>
</svg>
